<svg xmlns="http://www.w3.org/2000/svg" xmlns:xlink="http://www.w3.org/1999/xlink" version="1.1" x="0px" y="0px" viewBox="0 0 52 65" enable-background="new 0 0 52 52" xml:space="preserve"><g><path d="M33.8,28.7c6.4,2.3,10.1,0,10.4-0.2c3.2-2.2,5.8-5.7,5.8-9.2c0-6.1-7.6-11.1-14.7-9.2c0,0,0,0,0,0   c0.3,5.8-4.4,10.3-4.7,10.6c4.4-5.6,3-10,3-10c0,0,0,0,0,0c0,0,0,0,0,0c-1.4-4.4-5-8.7-9.3-8.7c-6,0-10.6,5.8-10.9,11.5   c5.6,1.5,8.4,7.3,8.6,7.7c-2.1-3.1-5.4-5.9-9.1-5.9c-4.3,0-8.9,1.8-10.3,5.4c-2.4,5.8,1.7,12.6,7.2,14.7c0,0,0,0,0,0   c3.2-5,10-5.8,10-5.8c-6.9,2-8.7,6.9-8.7,6.9c-1.7,5.6,0.5,12.5,6.9,13.6c4.2,0.7,8.8-1.2,11.4-4.5c0,0,0,0,0,0   c-3.8-4.6-2.4-11.3-2.4-11.3c-0.2,7.1,4.1,10.7,4.1,10.7c4.1,2.8,9.8,3.2,13.6-0.9c3.5-3.7,3.2-9.9,0.4-14.1   C40,31.9,34.3,28.9,33.8,28.7z M26,31c-2.8,0-5-2.2-5-5s2.2-5,5-5c2.8,0,5,2.2,5,5S28.8,31,26,31z"/></g><text x="0" y="67" fill="#000000" font-size="5px" font-weight="bold" font-family="'Helvetica Neue', Helvetica, Arial-Unicode, Arial, Sans-serif">Created by ProSymbols</text><text x="0" y="72" fill="#000000" font-size="5px" font-weight="bold" font-family="'Helvetica Neue', Helvetica, Arial-Unicode, Arial, Sans-serif">from the Noun Project</text></svg>