<svg xmlns="http://www.w3.org/2000/svg" version="1.1" viewBox="-5.0 -10.0 110.0 135.0">
 <path d="m26.855 5.8789-0.042969 0.77734-0.22266 4.4141c-0.003906 0.074219-0.066406 0.12891-0.13672 0.12891h-0.007813l-9.6797-0.47656c-0.074219-0.003906-0.13672-0.066406-0.13281-0.14453l0.050782-1.1055-0.09375-0.003906-7.2422-0.35547c-0.039062 0-0.070312-0.019531-0.097656-0.042969-0.023438-0.03125-0.035156-0.066406-0.035156-0.10156l0.027344-0.49219-5.1172-0.26172c-0.078125-0.003906-0.13672-0.066406-0.13281-0.14453l0.066406-1.4648c0-0.035157 0.019531-0.070313 0.046875-0.097657 0.027343-0.023437 0.070312-0.039062 0.10156-0.035156l5.1172 0.25781 0.027343-0.49219c0.003907-0.074219 0.066407-0.13281 0.13672-0.13281h0.007813l7.3438 0.37109 0.050781-1.1016c0-0.039062 0.019531-0.070312 0.046875-0.097656 0.027344-0.023438 0.0625-0.03125 0.10156-0.035156l9.6914 0.48828c0.035156 0.003906 0.070312 0.019531 0.097656 0.046875 0.019531 0.027344 0.03125 0.066406 0.027344 0.10156zm68.773 36.953c-0.003906 0.058594-0.023437 0.16406-0.125 0.25781-0.32812 0.30469-1.2539 0.25781-2.7578-0.14844-1.0391-0.28125-2.4297 0.28516-3.5469 1.4453-1.4414 1.4961-4.4414 6.1055-1.1992 16.609 0.22266 0.71484 0.44141 1.4219 0.65625 2.1133 3.9844 12.789 6.8594 22.031-5.9453 29.184-3.2383 1.8086-6.1055 2.4609-8.5508 2.4609-2.6484 0-4.8086-0.76562-6.4258-1.6562-5.3242-2.9297-8.0039-8.8008-8.2344-13.02-0.1875-3.3359-0.76953-3.7734-1.5781-4.3828-1.1797-0.88672-2.793-2.1055-4.1562-12.52l-3.3008-11.973c-1.4219-0.30469-2.4453-1.5625-2.4453-3.0234 0-0.86719 0.35938-1.6914 0.99219-2.2734l-2.0352-7.4219c-1.5586-0.18359-2.7227-1.4922-2.7227-3.0781 0-0.96875 0.4375-1.8555 1.1992-2.4492l-4.6211-16.797c-0.015625-0.0625-1.3438-5.6289-7.3477-5.4414-1.7773 0.0625-3.9766 0.015625-5.8945-0.035156-0.039063 0-0.074219-0.015625-0.097656-0.042969-0.027344-0.027344-0.039063-0.0625-0.035157-0.10156l0.1875-3.8477c0.003907-0.035156 0.019531-0.070312 0.046875-0.097656 0.027344-0.023438 0.0625-0.035156 0.10156-0.035156l10.965 0.55469c0.019532 0 3.8047-0.14062 6.0391 4.2344 2.0781 4.0703 4.75 10.562 5.0547 11.309l2.332 0.45312c0.042968 0.007813 0.082031 0.039063 0.10156 0.078125l4.1133 9.1133c0.011718 0.027344 0.015624 0.0625 0.007812 0.09375l-0.66797 2.4141 2.2109 1.0156c0.03125 0.015625 0.054687 0.039062 0.070312 0.070312l2.1836 4.8555c0.011719 0.027344 0.015625 0.054688 0.007813 0.082031l-0.41406 2.1211 2.0352 1.457c0.019531 0.015625 0.035157 0.035156 0.046875 0.054688l1.4961 3.3398c0.007812 0.019531 0.011719 0.039062 0.011719 0.058593v4.3047l2.4844 1.2383c0.027344 0.015625 0.050781 0.039062 0.066406 0.066406l1.3203 2.9375c0.007813 0.019532 0.011719 0.039063 0.011719 0.058594v3.168l1.5859 0.45703c0.039062 0.011719 0.070312 0.039062 0.085937 0.078125l6.0742 13.473c0.29297 0.62891 0.90234 1.5977 1.3359 1.5977 0.011719 0 0.027344 0 0.039063-0.003907 0.16797-0.023437 0.48047-0.25781 0.66797-1.5586 0.16406-1.1094-0.64062-3.2969-1.6562-6.0703-2.3633-6.4531-6.3242-17.262-3.1406-28.602-0.003907 0 0.16406-1.7148-0.84375-2.8164-0.58984-0.64062-1.4609-0.96484-2.6016-0.93359-0.003906 0.003907-0.50781 0.039063-0.86328-0.375-0.37109-0.43359-0.42969-1.1836-0.17188-2.2266-0.003906 0 0.042969-0.53516 0.58203-0.90625 0.66016-0.45312 1.7305-0.46094 3.1836-0.023438 3.3906 1.0195 22.559 7.6016 23.207 7.8242 0.11328 0.011719 0.66797 0.10156 1.0039 0.62891 0.37109 0.58984 0.32813 1.4805-0.12891 2.6523zm-35.422 19.754c0.34375 0 0.69141-0.066407 1.0273-0.20313 1.3906-0.56641 2.0625-2.1602 1.4961-3.5547-0.57031-1.3906-2.1602-2.0586-3.5547-1.4922-0.67578 0.27344-1.1992 0.79687-1.4844 1.4688-0.28125 0.67187-0.28516 1.4102-0.007812 2.0859 0.42578 1.0586 1.4453 1.6953 2.5234 1.6953zm3.3477 8.2148c0.34766 0 0.69922-0.066406 1.0312-0.20312 0.67578-0.27344 1.1992-0.79688 1.4844-1.4688 0.28125-0.67188 0.28516-1.4102 0.007813-2.0859-0.27344-0.67578-0.79297-1.1992-1.4648-1.4844-0.67188-0.28125-1.4141-0.28516-2.0859-0.011719-0.67578 0.27344-1.1992 0.79688-1.4844 1.4688-0.28125 0.67188-0.28516 1.4102-0.011719 2.0859 0.27344 0.67188 0.79688 1.1992 1.4688 1.4844 0.33594 0.14453 0.69531 0.21484 1.0547 0.21484zm5.875 4.457c-0.27344-0.67578-0.79297-1.1992-1.4648-1.4844-0.67188-0.28125-1.4141-0.28516-2.0859-0.011719-0.67578 0.27344-1.1992 0.79688-1.4844 1.4688-0.28125 0.67188-0.28516 1.4102-0.011719 2.0859 0.27344 0.67578 0.79688 1.1992 1.4688 1.4844 0.33984 0.14453 0.69922 0.21484 1.0547 0.21484 0.34766 0 0.69922-0.066406 1.0312-0.20312 0.67578-0.27344 1.1992-0.79688 1.4844-1.4688 0.27734-0.67188 0.28125-1.4102 0.007813-2.0859zm10.805-13.383c-5.5195-11.379-1.8477-19-1.7969-19.098 0.27344-0.54297 0.058594-1.2109-0.48438-1.4883-0.54297-0.27734-1.2148-0.0625-1.4922 0.48438-0.17578 0.34766-4.2617 8.6211 1.7773 21.07 0.19141 0.39453 0.58594 0.625 1 0.625 0.16406 0 0.32812-0.035156 0.48438-0.10938 0.55078-0.26953 0.78125-0.93359 0.51172-1.4844z"/>
<text x="0.0" y="117.5" font-size="5.0" font-weight="bold" font-family="Arbeit Regular, Helvetica, Arial-Unicode, Arial, Sans-serif" fill="#000000">Created by satrio</text><text x="0.0" y="122.5" font-size="5.0" font-weight="bold" font-family="Arbeit Regular, Helvetica, Arial-Unicode, Arial, Sans-serif" fill="#000000">from Noun Project</text></svg>