<svg xmlns="http://www.w3.org/2000/svg" version="1.1" viewBox="-5.0 -10.0 110.0 135.0">
 <path d="m50 5.207c-5.125 0-10.145 0.85547-14.938 2.543-0.54297 0.1875-0.83203 0.79297-0.625 1.332 0.1875 0.54297 0.79297 0.83203 1.332 0.625 4.5625-1.6055 9.3555-2.4375 14.23-2.4375 23.543 0 42.707 19.168 42.707 42.707 0 10.125-3.6055 19.957-10.168 27.668-0.375 0.4375-0.3125 1.1055 0.125 1.4805 0.1875 0.16797 0.4375 0.25 0.66797 0.25 0.29297 0 0.58203-0.125 0.79297-0.375 6.875-8.082 10.668-18.395 10.668-29.02 0-24.707-20.105-44.793-44.793-44.793z"/>
 <path d="m50 94.793c10.625 0 20.938-3.793 29.02-10.668 0.4375-0.375 0.5-1.0195 0.125-1.4805-0.375-0.4375-1.0195-0.5-1.4805-0.125-7.707 6.5625-17.52 10.168-27.668 10.168-23.543 0-42.707-19.168-42.707-42.707 0-15.688 8.5625-30.082 22.375-37.562 0.5-0.26953 0.6875-0.91797 0.41797-1.418s-0.89453-0.6875-1.418-0.41797c-14.477 7.875-23.457 22.961-23.457 39.418 0 24.707 20.105 44.793 44.793 44.793z"/>
 <path d="m58.332 50c0 4.6016-3.7305 8.332-8.332 8.332s-8.332-3.7305-8.332-8.332 3.7305-8.332 8.332-8.332 8.332 3.7305 8.332 8.332"/>
 <path d="m31.918 21.312c-1.3945-2.207-2.7305-2.5-3.6875-1.832-8.582 6.1055-14.457 15.75-15.543 26.812-0.125 1.207 0.76953 2.293 2 2.332l20.918 0.8125c1.043 0.042969 1.9375-0.6875 2.1055-1.707 0.51953-2.875 2.043-5.418 4.1875-7.25 0.79297-0.66797 0.98047-1.793 0.4375-2.668l-10.395-16.52z"/>
 <path d="m54.188 61.793c-1.3125 0.45703-2.7305 0.70703-4.1875 0.70703s-2.875-0.25-4.168-0.70703c-0.98047-0.35547-2.0625 0.0625-2.543 0.98047l-9.75 18.52c-0.54297 1.043-0.14453 2.3555 0.91797 2.832 4.7305 2.168 9.9805 3.375 15.543 3.375s10.812-1.207 15.543-3.375c1.0625-0.48047 1.4805-1.8125 0.91797-2.832l-9.7305-18.52c-0.48047-0.91797-1.5625-1.332-2.543-0.98047z"/>
 <path d="m87.332 46.312c-1.082-11.062-6.9805-20.73-15.562-26.832-0.95703-0.6875-2.293-0.375-2.918 0.625l-7.082 11.27c-1.375 2.1875-2.75 4.3555-4.0625 6.457-0.54297 0.875-0.35547 2 0.41797 2.668 2.1445 1.832 3.668 4.375 4.1875 7.293 0.1875 1 1.0625 1.7305 2.082 1.6875 6.8125-0.26953 14.188-0.5625 20.98-0.8125 1.207-0.042969 2.1055-1.125 1.9805-2.332z"/>
<text x="0.0" y="117.5" font-size="5.0" font-weight="bold" font-family="Arbeit Regular, Helvetica, Arial-Unicode, Arial, Sans-serif" fill="#000000">Created by Pandu Bramantyo</text><text x="0.0" y="122.5" font-size="5.0" font-weight="bold" font-family="Arbeit Regular, Helvetica, Arial-Unicode, Arial, Sans-serif" fill="#000000">from Noun Project</text></svg>