<svg xmlns="http://www.w3.org/2000/svg" xmlns:xlink="http://www.w3.org/1999/xlink" version="1.1" x="0px" y="0px" viewBox="0 0 108.42 135.525" style="enable-background:new 0 0 108.42 108.42;" xml:space="preserve"><g><path d="M105.94,93.94L83.8,71.8l-2.72,2.72l-7.41-7.41c12.94-16.22,11.93-39.99-3.08-55C62.78,4.3,52.39,0,41.35,0   S19.92,4.3,12.11,12.11C4.3,19.92,0,30.3,0,41.35s4.3,21.43,12.11,29.24c8.06,8.06,18.65,12.09,29.24,12.09   c9.13,0,18.25-3.01,25.76-9.01l7.41,7.41L71.8,83.8l22.14,22.14c3.31,3.31,8.69,3.31,12,0C109.25,102.62,109.25,97.25,105.94,93.94   z M18.67,64.03c-6.06-6.06-9.4-14.11-9.4-22.68c0-8.57,3.34-16.62,9.4-22.68c6.06-6.06,14.11-9.4,22.68-9.4   c8.57,0,16.62,3.34,22.68,9.4c12.51,12.51,12.51,32.86,0,45.36C51.52,76.54,31.17,76.54,18.67,64.03z"/><path d="M41.68,14.24c-15.13,0-27.44,12.31-27.44,27.44c0,1.16,0.94,2.11,2.11,2.11s2.11-0.94,2.11-2.11   c0-12.81,10.42-23.23,23.23-23.23c1.16,0,2.11-0.94,2.11-2.11S42.84,14.24,41.68,14.24z"/></g><text x="0" y="123.42" fill="#000000" font-size="5px" font-weight="bold" font-family="'Helvetica Neue', Helvetica, Arial-Unicode, Arial, Sans-serif">Created by Kristian Bannister</text><text x="0" y="128.42000000000002" fill="#000000" font-size="5px" font-weight="bold" font-family="'Helvetica Neue', Helvetica, Arial-Unicode, Arial, Sans-serif">from the Noun Project</text></svg>