<svg xmlns="http://www.w3.org/2000/svg" viewBox="0 0 64 80" x="0px" y="0px"><title>staff-stick</title><g data-name="Layer 11"><path d="M61.06,63.75,16.53,18a9.14,9.14,0,0,0,.57-2.29l9.62,9.86a1.09,1.09,0,0,0,.76.32,1,1,0,0,0,.75-.31,1.05,1.05,0,0,0,0-1.51L16.74,12.23a8.22,8.22,0,0,0-3.39-4.16C13,7.85,10,5.9,7,6.76a5.6,5.6,0,0,0-3.55,3.36C2.19,13,4.17,15.63,5.9,16.54A5,5,0,0,0,10.66,16a3.9,3.9,0,0,0,1.41-2.34A2.14,2.14,0,0,0,11.68,12a1.08,1.08,0,0,0-1.51-.22A1.06,1.06,0,0,0,10,13.27a1.66,1.66,0,0,1-.55,1,3,3,0,0,1-2.51.4c-.88-.47-2.22-2-1.49-3.66a3.56,3.56,0,0,1,2.2-2.17c1.66-.48,3.7.47,4.55,1a5.83,5.83,0,0,1,2,8.08A8.34,8.34,0,0,1,2.46,6.05c3.21-3.21,10-3.19,13.29,0,.27.37,1.64,2.61,2.82,4.6a1.09,1.09,0,0,0,.13.17L64,60.51ZM15.38,37.81h0a4.44,4.44,0,0,0-2.44,2.43l-.87,2.13-.86-2.13a4.49,4.49,0,0,0-2.44-2.44L6.65,37l2.12-.87a4.47,4.47,0,0,0,2.44-2.43l.86-2.13.87,2.13a4.47,4.47,0,0,0,2.44,2.43L17.5,37ZM44.87,19.28a4.47,4.47,0,0,0,2.43-2.44l.87-2.12L49,16.84a4.44,4.44,0,0,0,2.43,2.44l2.13.86L51.47,21h0A4.45,4.45,0,0,0,49,23.44l-.87,2.13-.87-2.13A4.49,4.49,0,0,0,44.87,21l-2.13-.87ZM26.08,53.23H23.35V50.5a1,1,0,0,0-2,0v2.73H18.62a1,1,0,1,0,0,2h2.73V58a1,1,0,0,0,2,0V55.23h2.73a1,1,0,1,0,0-2ZM28.78,28l.09.1a1,1,0,0,0,1.44-1.4l-.1-.09A1,1,0,1,0,28.78,28Z"/></g><text x="0" y="79" fill="#000000" font-size="5px" font-weight="bold" font-family="'Helvetica Neue', Helvetica, Arial-Unicode, Arial, Sans-serif">Created by agus raharjo</text><text x="0" y="84" fill="#000000" font-size="5px" font-weight="bold" font-family="'Helvetica Neue', Helvetica, Arial-Unicode, Arial, Sans-serif">from the Noun Project</text></svg>