<svg xmlns="http://www.w3.org/2000/svg" version="1.1" viewBox="-5.0 -10.0 110.0 135.0">
 <path d="m50 2.8984c-26 0-47.102 21.102-47.102 47.102s21.102 47.102 47.102 47.102 47.102-21.102 47.102-47.102-21.102-47.102-47.102-47.102zm34.199 69.5c-1-2.8008-4.8984-5.8984-6.6992-7.1992 1.1016-6 0.80078-12.102 0.5-15.898 4.8008-3.8008 7.3008-8.6992 8.1992-10.699 2.3984 1.3984 5.8008 4 7.6992 7.8008 0.10156 1.1992 0.19922 2.3984 0.19922 3.6016 0 4.3984-0.69922 8.6016-1.8984 12.602-2.5 5.0938-5.6992 8.0938-8 9.793zm-69.199-19.199c-2.8984-0.80078-5.1992-2-6-2.5-1-3.8984-1.3984-8.6992-1.6016-12.199 2-7.3008 5.8008-13.898 10.898-19.102 3.8984 0.69922 6.6992 3.1992 8.1016 4.8008-0.69922 4.6016-0.89844 9.1992-0.60156 13.801-2.2969 1.8008-8.1953 7.3984-10.797 15.199zm44.602-31.098c0.5 6.5-0.19922 13.301-0.5 16.102l-13.301 7.8984c-3.3008-1.3008-12.898-5.1016-18-8.1992-0.30078-4.3984-0.10156-8.8984 0.60156-13.398 5.6992-5.1016 13.301-8.3008 16.5-9.5 3.3984 1.0977 9.2969 3.4961 14.699 7.0977zm-32.102 60.398c-0.5-2.8984-0.10156-6.8008 0.39844-9.6016 2.3984 0 8.6992-0.5 15.602-4.3984 3.6016 2.8984 8.6016 5.6992 12.301 7.6992 0.69922 4.6992 1.6992 9.8984 2 11.801-4.3008 2.8984-10.398 4.8008-13.398 5.6016-6.1016-1.7031-14.801-9.2031-16.902-11.102zm29.699-7.8984c-3.6992-2-9-5-12.5-7.8008l2.3008-19 12.898-7.8008 16.102 9.3008c0.30078 3.8984 0.60156 10.199-0.60156 16.301-5.7969 5.5-14.699 8.0977-18.199 9zm36.102-32.801c-2.3008-2.6992-5.1992-4.5-7-5.5-2.3008-8.6992-7.8984-14.801-10.102-16.898 0.10156-1.3984 0.10156-3.1016-0.10156-5 8.8008 6.4961 15.102 16.199 17.203 27.398zm-19.699-29c0.60156 1.8984 0.69922 3.8008 0.60156 5.5-5.0039-1.3008-11.203 1-13.602 2.0977-5.1016-3.3984-10.602-5.6992-14.199-7l0.49609-7.3984c1-0.10156 2-0.10156 3.1016-0.10156 8.6992 0 16.801 2.5 23.602 6.9023zm-66.902 45.301c0.5-2.8008 1.5-4.3984 2.1992-5.1992 1.3008 0.69922 3.6016 1.6992 6.3984 2.3984 1.1016 2.8984 4.8047 10.699 10.703 16.699-0.5 2.8008-1 7-0.60156 10.301-2 0.30078-3.8008 0.30078-5.1992 0.19922-6.8008-6.3008-11.699-14.801-13.5-24.398zm43.102 36c3.1992-1.1016 6.8984-2.6992 9.6992-4.8008 3.3008 1 6.6016 1 9.3984 0.5-5.6992 2.6992-12.102 4.3008-18.898 4.3008h-0.19922zm29.898-11.602c1.8008-2.8008 3.1992-5.6992 4-7.5 1.1992-0.69922 3-1.8984 4.8984-3.8008-2.2969 4.3008-5.2969 8.1016-8.8984 11.301z"/>
<text x="0.0" y="117.5" font-size="5.0" font-weight="bold" font-family="Arbeit Regular, Helvetica, Arial-Unicode, Arial, Sans-serif" fill="#000000">Created by MIYEON KANG</text><text x="0.0" y="122.5" font-size="5.0" font-weight="bold" font-family="Arbeit Regular, Helvetica, Arial-Unicode, Arial, Sans-serif" fill="#000000">from Noun Project</text></svg>