<svg xmlns="http://www.w3.org/2000/svg" version="1.1" viewBox="-5.0 -10.0 110.0 135.0">
 <path d="m49.734 67.152 1.2031-0.69531 10.707 18.773-2.4766 1.4297c-0.28516 0.16406-0.38281 0.52734-0.21875 0.8125l2.0273 3.5078c0.16406 0.28516 0.52734 0.37891 0.8125 0.21484l2.4492-1.4141 1.4219 2.4883-0.89453 0.51953-1.1562 0.66406-0.007813 0.007813c-0.003906 0-0.007812 0.003906-0.011718 0.003906-2.3398 1.3516-4.3477 2.5117-5.4297 3.1328-0.9375 0.53906-2.1328 0.26953-2.7422-0.625-4.9883-7.4023-8.8008-15.316-11.23-23.824-0.25391-0.91016 0.14062-1.875 0.96094-2.3477zm22.078 22.938-0.65234 0.375-1.3984 0.80859h-0.003907c0 0.003906-0.003906 0.003906-0.007812 0.003906-0.98828 0.57422-1.9922 1.1523-2.9805 1.7227-0.003906 0.003906-0.007812 0.003906-0.007812 0.003906l-0.003907 0.003906-1.3984 0.80859-0.65234 0.375 1.0547 1.8242 7.1016-4.1016zm-5.125 1.5898-1.4219-2.4883 1.9375-1.1211 1.4414 2.4766-0.97656 0.56641zm-10.805-28.074 4.5859-2.6484c0.82031-0.47266 1.8516-0.33203 2.5117 0.34375 6.1523 6.3555 11.102 13.613 15.02 21.637 0.46875 0.97266 0.10547 2.1445-0.82812 2.6875-1.3906 0.80078-4.3125 2.4883-7.4961 4.3281l-1.4453-2.4727 2.4492-1.4141c0.28516-0.16406 0.37891-0.53125 0.21875-0.8125l-2.0273-3.5117c-0.16406-0.28125-0.52734-0.37891-0.8125-0.21484l-2.4727 1.4297-10.906-18.66zm12.258 19.246 1.4297 2.4805-7.8633 4.543-1.4336-2.4844zm-3.5859 0.69531-1.8828 1.0898-10.707-18.773 1.6875-0.97266zm18.805-18.988c1.418 4.7461 3.4961 9.3867 6.1641 13.934l-3.1289 1.8086c-2.6055-4.5859-5.5898-8.7031-8.9883-12.305zm-6.8047 2.5586c-0.91797-0.93359-1.8711-1.8281-2.8516-2.6875l8.4219-4.8633c0.25 1.2812 0.55078 2.5508 0.89844 3.8164zm-21.797-4.2344-5.0859 2.9375-24.336-45.125 2.5117-1.4492zm-27.203-47.883-0.089844 3.0938-2.9336 1.6953-2.7266-1.4727 0.38672-1.9492 3.4805-2.0078zm-7.7617-1.0586 0.17578 0.30469-7.8125 5.3711-1.6602-2.875 8.5586-4.0781zm-0.61328-3.4375 2.6992 4.6758 2.9219-1.6875-2.6992-4.6758zm12.883-6.2148 1.6602 2.8789-8.5586 4.0781-0.91406-1.582zm-13.68 5.3047 3.3281-1.9219c-0.039063-1.0977-0.16016-4.3477-0.16016-4.3477-1.7383-0.37891-3.1523-0.21484-4.2812 0.47266-1.1328 0.68359-1.9609 1.8828-2.5547 3.4961z" fill-rule="evenodd"/>
<text x="0.0" y="117.5" font-size="5.0" font-weight="bold" font-family="Arbeit Regular, Helvetica, Arial-Unicode, Arial, Sans-serif" fill="#000000">Created by Anditii Creative</text><text x="0.0" y="122.5" font-size="5.0" font-weight="bold" font-family="Arbeit Regular, Helvetica, Arial-Unicode, Arial, Sans-serif" fill="#000000">from Noun Project</text></svg>