<svg xmlns="http://www.w3.org/2000/svg" data-name="Layer 1" viewBox="0 0 96.57 100.925" x="0px" y="0px"><path d="M33.59,90.21c-1.13-.15-2.26-.28-3.39-.46C25.62,89,21,88.29,16.44,87.61c-3.17-.47-6.36-.8-9.53-1.29a13.68,13.68,0,0,1-3.42-1c-2.07-.92-2.34-3-.48-4.35a35.49,35.49,0,0,1,6-3.71c4.67-2.09,9.45-3.93,14.19-5.85,2.07-.85,4.16-1.65,6.25-2.46a5.65,5.65,0,0,0,1.35-.46c.6-.43,1.37-.93,1.57-1.56,2.91-9.19,5.88-18.37,8.53-27.64,2-6.89,3.45-13.92,5.28-20.85.67-2.58,1.7-5.06,2.59-7.57a9.12,9.12,0,0,1,.82-1.35c.52,2,.9,3.65,1.42,5.29C53.45,22.4,56,30,58.33,37.69c1.77,5.92,3.13,12,4.73,18q1.62,6,3.44,12c.12.39,1,.72,1.5.79,7.91,1.06,15.7,2.62,23.06,5.84,1.17.51,2.29,1.11,3.44,1.66a6.91,6.91,0,0,1,3.84,3.88v1a14.48,14.48,0,0,1-2,2.71,15,15,0,0,1-6.75,2.82c-1.82.39-3.67.66-5.5,1-2.65.53-5.28,1.26-8,1.6-3.29.42-6.62.53-9.94.76-1.12.08-2.24.22-3.36.2-3.63-.07-7.26-.23-10.9-.31-2.89-.06-5.78-.11-8.66,0-2.6.06-5.19.29-7.79.45-.54,0-1.09.13-1.63.2ZM62,59.45c-8.64.66-17.19,1.88-26,1.73,0,0-.11.09-.15.23-1.08,3.29-2.18,6.58-3.2,9.89-.55,1.78,0,2.86,1.78,3.18a38.77,38.77,0,0,0,7.36.68c4.41-.06,8.81-.37,13.22-.65,2.79-.19,5.58-.46,8.37-.79A24.43,24.43,0,0,0,66.42,73Z" transform="translate(-1.76 -9.47)"/><text x="0" y="95.74" fill="#000000" font-size="5px" font-weight="bold" font-family="'Helvetica Neue', Helvetica, Arial-Unicode, Arial, Sans-serif">Created by James Cottell</text><text x="0" y="100.74" fill="#000000" font-size="5px" font-weight="bold" font-family="'Helvetica Neue', Helvetica, Arial-Unicode, Arial, Sans-serif">from the Noun Project</text></svg>