<svg xmlns="http://www.w3.org/2000/svg" version="1.1" viewBox="-5.0 -10.0 110.0 135.0">
 <path d="m79.605 41.668c5.6172 0 9.9766 4.7695 9.9766 10.414v20.836c0 5.6445-4.3594 10.414-9.9766 10.414h-14.066c-3.0156 0-5.8203-1.5469-7.4297-4.0938-0.84766-1.3398-2.3242-2.1562-3.9102-2.1562h-8.3984c-1.4883 0-2.875 0.71484-3.7422 1.9102l-0.16797 0.24609c-1.6094 2.5469-4.4141 4.0938-7.4297 4.0938h-14.066c-5.6172 0-9.9766-4.7695-9.9766-10.414v-20.836c0-5.6445 4.3594-10.414 9.9766-10.414zm-59.211 2.082c-4.3594 0-7.8945 3.7305-7.8945 8.332v20.836c0 4.6016 3.5352 8.332 7.8945 8.332h14.066c2.3008 0 4.4414-1.1797 5.668-3.125 1.2305-1.9453 3.3711-3.125 5.6719-3.125h8.3984c2.3008 0 4.4414 1.1797 5.6719 3.125 1.2266 1.9453 3.3672 3.125 5.668 3.125h14.066c4.3594 0 7.8945-3.7305 7.8945-8.332v-20.836c0-4.6016-3.5352-8.332-7.8945-8.332z"/>
 <path d="m50 16.668c12.691 0 23.98 5.3516 29.152 13.523 0.54297 0.26953 1.0781 0.54688 1.6016 0.83203l0.56641 0.32031c5.7422 3.4375 8.2617 9.9922 8.2617 16.277v4.4609c0-3.668-1.8438-6.9688-4.6797-8.832-0.85156-3.5352-2.7773-6.5625-5.7344-8.332l-0.40234-0.23438c-0.32422-0.17578-0.64844-0.34375-0.97656-0.51562l-1-0.49609c-7.4531-3.6094-16.715-5.7695-26.789-5.7695-9.4453 0-18.176 1.8984-25.371 5.1094l-1.418 0.66016c-0.33594 0.16406-0.66797 0.32812-1 0.49609l-0.97656 0.51562c-3.1836 1.7305-5.2461 4.875-6.1367 8.5664-2.8359 1.8633-4.6797 5.1641-4.6797 8.832v-4.4609c0-6.4883 2.6875-13.262 8.8281-16.598l1.0625-0.5625c0.17969-0.089844 0.35938-0.17969 0.53516-0.26953 5.1719-8.1719 16.465-13.523 29.156-13.523z"/>
 <path d="m10.578 50.223c-0.10547 0.60547-0.16016 1.2266-0.16016 1.8594v18.488c-3.5938-0.92578-6.25-4.1875-6.25-8.0703v-4.168c0-3.9414 2.7344-7.2422 6.4102-8.1094z"/>
 <path d="m89.418 50.223c3.6797 0.86719 6.4141 4.168 6.4141 8.1094v4.168c0 3.8828-2.6562 7.1445-6.25 8.0703v-18.488c0-0.63281-0.058593-1.2539-0.16406-1.8594z"/>
 <path d="m79.605 45.832c3.1055 0 5.8125 2.6914 5.8125 6.25v20.836c0 3.5586-2.707 6.25-5.8125 6.25h-14.066c-1.4883 0-2.8789-0.71484-3.7422-1.9102l-0.16797-0.24609c-1.6094-2.5469-4.4141-4.0938-7.4297-4.0938h-8.3984c-2.8281 0-5.4688 1.3594-7.1133 3.6289l-0.31641 0.46484c-0.84766 1.3398-2.3242 2.1562-3.9102 2.1562h-14.066c-3.1055 0-5.8125-2.6914-5.8125-6.25v-20.836c0-3.5586 2.707-6.25 5.8125-6.25zm-35.855 8.3359c-1.1523 0-2.082 0.92969-2.082 2.082s0.92969 2.082 2.082 2.082h12.5c1.1523 0 2.082-0.92969 2.082-2.082s-0.92969-2.082-2.082-2.082z"/>
<text x="0.0" y="117.5" font-size="5.0" font-weight="bold" font-family="Arbeit Regular, Helvetica, Arial-Unicode, Arial, Sans-serif" fill="#000000">Created by Komardews</text><text x="0.0" y="122.5" font-size="5.0" font-weight="bold" font-family="Arbeit Regular, Helvetica, Arial-Unicode, Arial, Sans-serif" fill="#000000">from Noun Project</text></svg>