<svg xmlns="http://www.w3.org/2000/svg" version="1.1" viewBox="-5.0 -10.0 110.0 135.0">
 <path d="m84.375 75h-68.75l-6.2773 25h81.305z"/>
 <path d="m21.891 65.625h56.223v6.25h-56.223z"/>
 <path d="m25 43.75h50v6.25h-50z"/>
 <path d="m28.109 21.875h43.777v6.25h-43.777z"/>
 <path d="m15.941 62.312-0.31641 0.1875h68.75l-0.31641-0.1875c1.9766-0.55078 3.4414-2.3477 3.4414-4.5 0-0.86328-0.69922-1.5625-1.5625-1.5625s-1.5625 0.69922-1.5625 1.5625-0.69922 1.5625-1.5625 1.5625h-3.4102c-2.0352-1.6055-3.5781-3.7695-4.4023-6.25h-50c-0.82812 2.4805-2.3672 4.6445-4.4023 6.25h-3.4102c-0.86328 0-1.5625-0.69922-1.5625-1.5625s-0.69922-1.5625-1.5625-1.5625-1.5625 0.69922-1.5625 1.5625c0 2.1484 1.4648 3.9492 3.4414 4.5z"/>
 <path d="m21.863 40.625h0.015625 56.266c2.5781-0.007812 4.6758-2.1055 4.6758-4.6875 0-0.86328-0.69922-1.5625-1.5625-1.5625-0.86328 0-1.5625 0.69922-1.5625 1.5625s-0.69922 1.5625-1.5625 1.5625h-2.8867c-1.4648-1.875-2.6094-3.9844-3.3633-6.25h-43.75c-0.75781 2.2656-1.8984 4.375-3.3633 6.25h-2.8867c-0.86328 0-1.5625-0.69922-1.5625-1.5625s-0.69922-1.5625-1.5625-1.5625c-0.86328 0-1.5625 0.69922-1.5625 1.5625 0 2.582 2.0938 4.6797 4.6758 4.6875z"/>
 <path d="m21.863 18.75h0.015625 56.266c2.5781-0.007812 4.6758-2.1055 4.6758-4.6875 0-0.86328-0.69922-1.5625-1.5625-1.5625-0.86328 0-1.5625 0.69922-1.5625 1.5625s-0.69922 1.5625-1.5625 1.5625h-4.6758l-23.457-15.625-23.449 15.625h-4.6758c-0.86328 0-1.5625-0.69922-1.5625-1.5625s-0.69922-1.5625-1.5625-1.5625-1.5625 0.69922-1.5625 1.5625c0 2.582 2.0977 4.6797 4.6758 4.6875z"/>
<text x="0.0" y="117.5" font-size="5.0" font-weight="bold" font-family="Arbeit Regular, Helvetica, Arial-Unicode, Arial, Sans-serif" fill="#000000">Created by Berkah Icon</text><text x="0.0" y="122.5" font-size="5.0" font-weight="bold" font-family="Arbeit Regular, Helvetica, Arial-Unicode, Arial, Sans-serif" fill="#000000">from Noun Project</text></svg>