<svg xmlns="http://www.w3.org/2000/svg" version="1.1" viewBox="-5.0 -10.0 110.0 135.0">
 <path d="m85.59 36.086h-66.496c-0.42969 0-0.78125-0.35156-0.78125-0.78125v-8.3477c0-1.0508 0.85547-1.9023 1.9023-1.9023h27.699c-0.011718 0.050781-0.015624 0.10156-0.015624 0.15625v3.1719c0 0.97266 0.78516 1.7578 1.7578 1.7578h28.66c0.97266 0 1.7578-0.78516 1.7578-1.7578v-3.1719c0-0.054688-0.003907-0.10547-0.015625-0.15625h5.5312c1.0703 0 1.9023 0.83594 1.9023 1.9023v7.2266c0 1.0703-0.83594 1.9023-1.9023 1.9023zm-49.215-2.832c-0.10156 0-0.21094-0.019531-0.3125-0.0625-0.39453-0.17188-0.57422-0.63281-0.40625-1.0312l1.6602-3.8086c0.17188-0.39453 0.63281-0.57422 1.0312-0.40625 0.39453 0.17188 0.57422 0.63281 0.40625 1.0312l-1.6602 3.8086c-0.13281 0.29297-0.41406 0.46875-0.71875 0.46875zm-4.9297 0c-0.10156 0-0.21094-0.019531-0.3125-0.0625-0.39453-0.17188-0.57422-0.63281-0.40625-1.0312l1.6602-3.8086c0.17188-0.39453 0.63281-0.57422 1.0312-0.40625 0.39453 0.17188 0.57422 0.63281 0.40625 1.0312l-1.6602 3.8086c-0.13281 0.29297-0.41406 0.46875-0.71875 0.46875zm-4.9297 0c-0.10156 0-0.21094-0.019531-0.3125-0.0625-0.39453-0.17188-0.57422-0.63281-0.40625-1.0312l1.6602-3.8086c0.17188-0.39453 0.63281-0.57422 1.0312-0.40625 0.39453 0.17188 0.57422 0.63281 0.40625 1.0312l-1.6602 3.8086c-0.13281 0.29297-0.41406 0.46875-0.71875 0.46875zm22.93-8.2031h29.082c-0.011719 0.050781-0.015625 0.10156-0.015625 0.15625v3.1719c0 0.10938-0.089844 0.19531-0.19531 0.19531h-28.66c-0.10938 0-0.19531-0.085938-0.19531-0.19531v-3.1719c0-0.054687-0.003907-0.10547-0.015626-0.15625z" fill-rule="evenodd"/>
 <path d="m30.816 71.355c-0.13672 0-0.24219-0.007813-0.31641-0.019531l-11.32-0.097657c-1.6484-0.015625-2.8555-0.53125-3.5898-1.5312-1.2344-1.6992-0.50391-4.1094-0.47266-4.2148 0-0.003907 0-0.003907 0.003906-0.011719l6.7383-20.605c1.082-3.2852 0.058594-3.9648-0.078125-4.0391-0.074219-0.015626-0.085938-0.027344-0.16016-0.074219-2.1094-1.2266-2.9531-2.5742-3.2578-3.6523 0.22656 0.089844 0.47266 0.14062 0.73047 0.14062h64.703c-0.003906 1.1094-0.015625 2.1172-0.046875 2.7812-0.050781 1.0977-0.52734 1.7148-0.91797 2.0312-0.81641 0.66797-1.8594 0.60156-2.1562 0.56641h-3.6406l1.3086-2.9688c0.17188-0.39453-0.003906-0.85547-0.39844-1.0312-0.39453-0.17188-0.85547 0.003906-1.0312 0.39844l-1.5898 3.5977h-3.2539l1.3438-2.9531c0.17969-0.39453 0.007813-0.85547-0.38672-1.0352-0.39453-0.17969-0.85547-0.003907-1.0352 0.38672l-1.6367 3.6016h-3.2148l1.3438-2.9531c0.17969-0.39453 0.011719-0.85547-0.38672-1.0352-0.39453-0.17969-0.85547-0.003907-1.0352 0.38672l-1.6367 3.6016h-3.8789l0.039063 4.3359v0.035156c-0.11328 3.2461-1.5312 4.9023-2.7031 5.7188-1.2852 0.89453-2.5625 0.99219-2.6172 0.99219h-0.054687-12.656c-0.023438 0-0.050782 0-0.074219-0.003906-1.8828-0.17578-3.4062 0.45312-4.5273 1.8711-0.87891 1.1094-1.1797 2.3086-1.1797 2.3203-0.003907 0.015625-0.007813 0.035157-0.015626 0.046875l-2.9297 9.4141c-0.52734 1.8359-1.3945 3.0625-2.5781 3.6484-0.57031 0.28516-1.0898 0.34766-1.4297 0.34766zm-6.0156-6.707h-1.1719c-0.42969 0-0.78125-0.35156-0.78125-0.78125 0-0.42969 0.35156-0.78125 0.78125-0.78125h1.1719c0.42969 0 0.78125 0.35156 0.78125 0.78125 0 0.42969-0.35156 0.78125-0.78125 0.78125zm5.0781 2.6836h-8.543c-0.56641 0-1.1484-0.29297-1.4844-0.74609-0.27734-0.37109-0.35937-0.82031-0.23828-1.2344 0-0.003906 0.003907-0.011718 0.003907-0.015624l6.3438-19.66c0.38672-1.3828 1.332-1.5312 1.7227-1.5312h4.832c0.41406 0 0.75781 0.32812 0.78125 0.74219 0.13672 2.6406 0.90234 5.1836 2.2852 7.5586 0.11328 0.19141 0.13672 0.41797 0.066407 0.63281l-4.1016 12.738c-0.28906 0.96094-0.89844 1.5195-1.668 1.5195zm-8.7383-1.6406c0.050781 0.039063 0.13281 0.078125 0.19531 0.078125h8.5156c0.039063-0.039062 0.13281-0.16797 0.21094-0.41797 0-0.003906 0.003906-0.007812 0.003906-0.015624l3.9922-12.414c-1.2734-2.2812-2.0352-4.7031-2.2695-7.2148h-4.1055c-0.074219 0-0.17188 0.19922-0.22656 0.39844-0.003906 0.011719-0.003906 0.023437-0.007812 0.035156l-6.3086 19.555zm32.613-15.156h-11.57c-1.4258 0-2.5859-1.1602-2.5859-2.5859 0-4.4688 3.6562-8.1055 8.1523-8.1055h7.0781c0.84375 0 1.6445 0.32812 2.2617 0.92188 0.62109 0.60547 0.96094 1.4023 0.96094 2.25v3.2227c0 2.3281-1.9688 4.2969-4.2969 4.2969z" fill-rule="evenodd"/>
 <path d="m48.016 47.738c-1.6094 0-3.1602-0.49219-4.4648-1.4297-1.2812-0.91797-2.2305-2.2031-2.75-3.6914-0.35547-1.0195 0.1875-2.1328 1.207-2.4883 1.0195-0.35547 2.1367 0.1875 2.4883 1.207 0.53125 1.5312 1.9102 2.4961 3.5273 2.4961 1.0781 0 1.9531 0.875 1.9531 1.9531s-0.88281 1.9531-1.957 1.9531z" fill-rule="evenodd"/>
 <path d="m19.09 33.742c-0.11719 0-0.23438-0.023438-0.34766-0.082032-0.011719-0.003906-0.023438-0.011718-0.035157-0.015625-0.078125-0.003906-0.15625-0.019531-0.23047-0.046875l-3.9531-1.4648c-1.582-0.58984-2.418-2.4102-1.832-3.9805 0.58594-1.6211 2.332-2.4258 3.9727-1.832l2.6836 0.97656c0.40625 0.14844 0.61328 0.59375 0.46875 1-3.2344 8.9414 1.0352 2.8555-0.035156 5.0195-0.13672 0.26953-0.41016 0.42578-0.69922 0.42578z" fill-rule="evenodd"/>
 <path d="m30.711 74.949h-10.984c-0.42969 0-0.78125-0.35156-0.78125-0.78125v-3.7109c0-0.42969 0.35156-0.78125 0.78125-0.78125 3.9453 0 8.7695 0.097657 10.84 0.097657h0.14844c0.42969 0 0.78125 0.35156 0.78125 0.78125v3.6133c0 0.42969-0.35156 0.78125-0.78125 0.78125z" fill-rule="evenodd"/>
<text x="0.0" y="117.5" font-size="5.0" font-weight="bold" font-family="Arbeit Regular, Helvetica, Arial-Unicode, Arial, Sans-serif" fill="#000000">Created by Graphic Nehar</text><text x="0.0" y="122.5" font-size="5.0" font-weight="bold" font-family="Arbeit Regular, Helvetica, Arial-Unicode, Arial, Sans-serif" fill="#000000">from Noun Project</text></svg>