<svg xmlns="http://www.w3.org/2000/svg" version="1.1" viewBox="-5.0 -10.0 110.0 135.0">
 <path d="m93.434 63.168c-0.86719-0.89453-1.3672-1.2305-0.97656-2.375 0.57031-1.9492 0.023438-3.9531-1.582-5.4102 5.2266-7.2148 1.7109-18.59-7.4844-20.105-2.8398-0.50391-5.625-1.3008-8.2773-2.3672-6.207-2.4961-10.824-6.0938-14.047-9.3125-1.1328-2.6953-3.2188-4.8516-5.8164-6.0156-0.33594-6.7188-7.0039-12.16-13.574-10.422-4.1602-5.3438-12.598-5.3594-16.773-0.019531-6.5703-1.707-13.234 3.7344-13.578 10.453-6.2188 2.6016-8.6172 11.023-5.1406 16.734-3.4922 5.7031-1.0586 14.211 5.1562 16.828 0.33594 6.7148 7 12.137 13.535 10.387 4.1797 5.332 12.582 5.3789 16.805 0.046875 4.7891 1.2109 10.078-1.3906 12.258-5.832 17.605-9.2656 28.383-11.969 28.48-4.7031-0.30469 0.93359-1.9414 1.9727-4.7656 2.0508h-11.719c-3.6875-0.078125-5.3164 4.8984-2.3438 7.0117v3.5078c-1.8203-0.63672-3.2539-1.9883-4.0625-3.7031-1.4062-0.15625-2.8594-0.29688-4.3438-0.375-2.8242 3.7344-7.7109 5.918-12.359 5.3594-5.1562 5.082-13.926 5.0195-19.078-0.015625-0.0625 0-0.14062 0.015625-0.20312 0.015625-8.8359 8.8203 11.574 13.398 25.984 13.203 13.969 0 28.125-3.2188 28.125-9.375 0-1.8281-1.2344-3.3906-3.3594-4.6875h-7.5781v-3.125h13.562c3.2461 0 6.2148-1.2148 8.4961-3.207 1.6328 1.4258 0.027343 2.8672 0.48828 4.6992 0.28516 1.8633 2.4297 2.9727 3.0469 4.4102-0.53125 0.49219-2.2031 0.35547-3.0586 0.18359l-1.9453-4.5664c-0.9375 0.4375-1.9219 0.8125-2.9375 1.0781l3.7656 8.8438c1.3008 2.7891-0.23828 6.6953-3.3594 7.25-4.4844 0.17188-61.004 0.007813-66.5 0.0625-0.55469-0.023437-3.5156 0.0625-4-0.0625-3.1133-0.55469-4.6602-4.4609-3.3594-7.25l4.0625-9.5469c-0.91016-0.55078-1.7969-1.2773-2.5156-2.0469l-4.4219 10.375c-1.4727 3.3555-0.60156 7.5117 2.1875 9.8594l-2.1719 4.7656c-2.4219 4.875 1.457 11.25 6.9375 11.094h69.062c5.4688 0.15625 9.3711-6.2188 6.9375-11.094 0 0-2.1719-4.7656-2.1719-4.7656 3.0938-2.5781 3.6797-7.1992 1.8242-10.715 4.3359 0.28906 6.6641-3.7031 2.7812-7.1133zm-34.93-37.531c0.64062 2.0469 0.51562 4.2188-0.3125 6.1875-2.3984 0.77344-4.8906 1.2148-7.4062 1.2188 0.26172-1.5078 0.16016-3.0664 0.375-4.5469 1.0234-2.6055 2.2656-5.5 3.3555-7.8203 1.8828 1.0312 3.332 2.8086 3.9883 4.9609zm-9.6523-14.059c2.0273 1.5586 3.2578 4.0508 3.3281 6.7188-1.0352 2.1367-2.1211 4.6445-3.0703 6.9258-4-3.9648-6.4805-9.4102-6.6016-15.062 2.1953-0.49609 4.5078 0.007813 6.3398 1.418zm-15.551-5.3477c2.3438 0 4.5312 1.0781 6.0625 3-0.11719 6.9688 2.8711 13.75 7.8867 18.555-0.47656 0.35547-0.98047 0.77344-1.5039 1.2461-7.7188-4.9297-14.188-11.93-18.164-20.207 1.5-1.6562 3.5469-2.5938 5.7188-2.5938zm-24.219 29.344c10.156 1.3867 20.066 3.3008 30.012 5.7852-0.097656 0.66016-0.16406 1.3047-0.19531 1.9336-8.9023-1.3008-18.191 0.46484-25.879 5.1719-4.957-1.7695-6.8438-8.5859-3.9375-12.891zm15.297 22.906c-4.6836 1.3477-9.4688-2.4492-9.8906-7.2344 7.2148-4.5391 16.074-6.1055 24.48-4.7891 0.12109 1.2852 0.34375 2.4336 0.58984 3.3984-6.1055-0.023438-12.582 2.8242-15.18 8.625zm14.93-0.55078c-0.10938 0.65234-0.19922 1.3281-0.28906 1.9727-3.0938 3.5273-8.7539 3.3633-11.684-0.28516 2.1875-4.8477 7.8984-6.7969 12.906-6.6367-0.375 1.7383-0.68359 3.3906-0.92969 4.9531zm0.96094-21.012c-0.18359 0.46484-0.33984 0.92578-0.48047 1.3828-10.148-2.5039-20.762-4.5508-31.129-5.9609-2.1211-3.9766-0.58594-9.5742 3.4375-11.656 8.8086 6.3242 18.387 11.566 28.5 15.508-0.10547 0.24609-0.22656 0.47266-0.32812 0.72656zm1.6094-3.5781c-9.7188-3.793-18.973-8.7539-27.453-14.844-0.13672-5.3789 5.2188-9.9844 10.406-8.125 4.2188 8.5 10.758 15.812 18.734 20.957-0.51953 0.63281-1.0312 1.3164-1.5156 2.0781-0.058593-0.023438-0.11328-0.042969-0.17188-0.066406zm6.9688 23.797c-1.875 1.4375-4.2344 1.9375-6.4688 1.3906 0.34766-2.207 0.82812-4.5078 1.3359-6.7266 0.85547-2.0742 2.457-3.8672 3.3203-5.9766 1.9219 1.1758 3.6328 2.6133 5.1562 4.2812 0.015625 2.7812-1.2344 5.4062-3.3438 7.0312zm9.6562-14.062c-0.65625 2.1562-2.0781 3.9062-3.9688 4.9375-1.8438-1.9688-3.918-3.7266-6.25-5.0938 0.86328-2.168 1.5469-4.418 1.9844-6.7188 2.3828-0.039063 4.7617-0.26953 7.0781-0.875 1.5312 2.2344 1.9688 5.125 1.1562 7.75zm-8.9688 28.781c-6.1914-0.12109-6.1875-6.1289 0-6.25 6.1914 0.12109 6.1875 6.1289 0 6.25zm38.297 19.797c-0.85938 1.3125-2.2188 2.0781-3.7656 2.0781h-69.062c-3.2969 0.097656-5.5469-3.793-4.0938-6.6875 0 0 2.0625-4.5469 2.0625-4.5469 1.2539 0.46875 3.9688 0.25 5.3125 0.29688v3.125c0 1.7188 1.4062 3.125 3.125 3.125h56.25c1.7188 0 3.125-1.4062 3.125-3.125v-3.125c1.3555-0.046875 4.0469 0.17188 5.3125-0.29688l2.0625 4.5469c0.6875 1.5 0.5625 3.2188-0.32812 4.6094z"/>
<text x="0.0" y="117.5" font-size="5.0" font-weight="bold" font-family="Arbeit Regular, Helvetica, Arial-Unicode, Arial, Sans-serif" fill="#000000">Created by LUTFI GANI AL ACHMAD</text><text x="0.0" y="122.5" font-size="5.0" font-weight="bold" font-family="Arbeit Regular, Helvetica, Arial-Unicode, Arial, Sans-serif" fill="#000000">from Noun Project</text></svg>