<svg xmlns="http://www.w3.org/2000/svg" version="1.1" viewBox="-5.0 -10.0 110.0 135.0">
 <path d="m60 58.5c2.6289 0 5-1.582 6.0039-4.0117 1.0078-2.4297 0.45312-5.2266-1.4062-7.0859s-4.6562-2.4141-7.0859-1.4062c-2.4297 1.0039-4.0117 3.375-4.0117 6.0039 0.003906 3.5898 2.9102 6.4961 6.5 6.5zm0-10c1.4141 0 2.6914 0.85156 3.2344 2.1602 0.53906 1.3086 0.24219 2.8125-0.75781 3.8164-1.0039 1-2.5078 1.2969-3.8164 0.75781-1.3086-0.54297-2.1602-1.8203-2.1602-3.2344 0.003906-1.9336 1.5664-3.4961 3.5-3.5z"/>
 <path d="m40 58.5c2.6289 0 5-1.582 6.0039-4.0117 1.0078-2.4297 0.45312-5.2266-1.4062-7.0859s-4.6562-2.4141-7.0859-1.4062c-2.4297 1.0039-4.0117 3.375-4.0117 6.0039 0.003906 3.5898 2.9102 6.4961 6.5 6.5zm0-10c1.4141 0 2.6914 0.85156 3.2344 2.1602 0.53906 1.3086 0.24219 2.8125-0.75781 3.8164-1.0039 1-2.5078 1.2969-3.8164 0.75781-1.3086-0.54297-2.1602-1.8203-2.1602-3.2344 0.003906-1.9336 1.5664-3.4961 3.5-3.5z"/>
 <path d="m18.5 61c0.003906 3.0352 2.4648 5.4961 5.5 5.5h0.5v0.5c0.007812 6.3477 5.1523 11.492 11.5 11.5h28c6.3477-0.007812 11.492-5.1523 11.5-11.5v-0.5h0.5c3.0352-0.003906 5.4961-2.4648 5.5-5.5v-8c-0.003906-3.0352-2.4648-5.4961-5.5-5.5h-0.5v-0.5c-0.007812-6.3477-5.1523-11.492-11.5-11.5h-12.5v-3.2344c2.6406-0.75 4.3242-3.3281 3.9492-6.0469-0.37891-2.7227-2.7031-4.7461-5.4492-4.7461s-5.0703 2.0234-5.4492 4.7461c-0.375 2.7188 1.3086 5.2969 3.9492 6.0469v3.2344h-12.5c-6.3477 0.007812-11.492 5.1523-11.5 11.5v0.5h-0.5c-3.0352 0.003906-5.4961 2.4648-5.5 5.5zm57-10.5h0.5c1.3789 0 2.5 1.1211 2.5 2.5v8c0 1.3789-1.1211 2.5-2.5 2.5h-0.5zm-28-23.5c0-1.0117 0.60938-1.9219 1.543-2.3086 0.93359-0.38672 2.0117-0.17578 2.7266 0.53906 0.71484 0.71484 0.92578 1.793 0.53906 2.7266-0.38672 0.93359-1.2969 1.543-2.3086 1.543-1.3789 0-2.5-1.1211-2.5-2.5zm-20 20c0.003906-4.6914 3.8086-8.4961 8.5-8.5h28c4.6914 0.003906 8.4961 3.8086 8.5 8.5v20c-0.003906 4.6914-3.8086 8.4961-8.5 8.5h-28c-4.6914-0.003906-8.4961-3.8086-8.5-8.5zm-6 6c0-1.3789 1.1211-2.5 2.5-2.5h0.5v13h-0.5c-1.3789 0-2.5-1.1211-2.5-2.5z"/>
 <path d="m60 65.5h-20c-0.82812 0-1.5 0.67188-1.5 1.5s0.67188 1.5 1.5 1.5h20c0.82812 0 1.5-0.67188 1.5-1.5s-0.67188-1.5-1.5-1.5z"/>
<text x="0.0" y="117.5" font-size="5.0" font-weight="bold" font-family="Arbeit Regular, Helvetica, Arial-Unicode, Arial, Sans-serif" fill="#000000">Created by ridhobadal</text><text x="0.0" y="122.5" font-size="5.0" font-weight="bold" font-family="Arbeit Regular, Helvetica, Arial-Unicode, Arial, Sans-serif" fill="#000000">from Noun Project</text></svg>