<svg xmlns="http://www.w3.org/2000/svg" version="1.1" viewBox="-5.0 -10.0 110.0 135.0">
 <path d="m24.539 54.23h8.1289c0.44531-2.0625 1.418-4.1172 2.918-6.1602 1.8711-2.5508 2.8086-5.082 2.8086-7.5977 0-2.5117-0.9375-5.0469-2.8086-7.5977-0.32422-0.44531-0.23047-1.0703 0.21484-1.3945 0.44531-0.32422 1.0703-0.23047 1.3945 0.21484 2.1328 2.9062 3.1992 5.832 3.1992 8.7734s-1.0664 5.8672-3.1992 8.7773c-1.1562 1.5742-1.9531 3.1445-2.3945 4.7031-0.023437 0.078125-0.046875 0.16016-0.066406 0.24219l-0.007813 0.035156c-0.25391 1.1445-0.34766 2.293-0.28125 3.4453 0.16016 2.6992 1.2227 5.3828 3.1758 8.043 0.32422 0.44531 0.94922 0.53906 1.3945 0.21484 0.44531-0.32422 0.53906-0.94922 0.21484-1.3945-1.7227-2.3438-2.6523-4.6758-2.793-6.9844-0.066406-1.1055 0.050781-2.2148 0.34766-3.3281h24.582l0.38672-0.54297c1.8711-2.5508 2.8086-5.082 2.8086-7.5977 0-2.5117-0.9375-5.0469-2.8086-7.5977-0.32422-0.44531-0.23047-1.0703 0.21484-1.3945 0.44531-0.32422 1.0703-0.23047 1.3945 0.21484 2.1328 2.9062 3.1992 5.832 3.1992 8.7773 0 2.5625-0.80859 5.1133-2.4297 7.6523-2.1055 2.8906-3.1602 5.7969-3.1602 8.7188 0 2.9414 1.0664 5.8672 3.1992 8.7734 0.32422 0.44531 0.94922 0.53906 1.3945 0.21484 0.44531-0.32422 0.53906-0.94922 0.21484-1.3945-1.8711-2.5508-2.8086-5.082-2.8086-7.5977 0-2.5117 0.9375-5.0469 2.8086-7.5977 0.15625-0.21094 0.30469-0.42578 0.45312-0.63672h9.2305c2.8164 0 5.3672-1.1406 7.207-2.9805 1.8477-1.8438 2.9883-4.3945 2.9883-7.2148 0-2.2109-0.70312-4.2578-1.8945-5.9258-1.2266-1.7109-2.9727-3.0352-5.0039-3.7266-0.51953-0.17578-0.80078-0.74219-0.625-1.2656 0.22656-0.66406 0.40234-1.3516 0.51953-2.043 0.10938-0.66797 0.17188-1.3711 0.17188-2.0977 0-3.3789-1.3164-6.4492-3.4648-8.7227-2.1602-2.2891-5.1641-3.7734-8.5078-3.9648-0.4375-0.023438-0.79297-0.32813-0.90625-0.72656-0.98828-3.5195-3.1172-6.5664-5.957-8.7148-2.7734-2.0977-6.2344-3.3438-9.9844-3.3438s-7.2109 1.2461-9.9844 3.3438c-2.8398 2.1484-4.9688 5.1953-5.957 8.7148-0.11719 0.42188-0.49219 0.70312-0.90625 0.72656-3.3438 0.1875-6.3516 1.6758-8.5117 3.9609-2.1445 2.2734-3.4648 5.3438-3.4648 8.7227 0 0.72656 0.058594 1.4297 0.17188 2.1016 0.11719 0.69141 0.29297 1.3789 0.51953 2.0391 0.17969 0.51953-0.10156 1.0898-0.64062 1.2773-2.0352 0.70312-3.7695 2.0195-5.0078 3.75-1.1875 1.6836-1.875 3.707-1.875 5.8945 0 2.8164 1.1406 5.3672 2.9805 7.207 1.8516 1.8438 4.3984 2.9883 7.2148 2.9883zm1.75 38.566c0.32422 0.44531 0.23047 1.0703-0.21484 1.3945-0.44531 0.32422-1.0703 0.23047-1.3945-0.21484-1.9141-2.6055-2.8711-5.2305-2.8711-7.875 0-2.6445 0.95703-5.2695 2.8711-7.875 1.6523-2.2461 2.4766-4.4805 2.4766-6.6953s-0.82422-4.4453-2.4766-6.6953c-0.32422-0.44531-0.23047-1.0703 0.21484-1.3945 0.44531-0.32422 1.0703-0.23047 1.3945 0.21484 1.9141 2.6055 2.8672 5.2305 2.8672 7.875 0 2.6406-0.95703 5.2695-2.8672 7.875-1.6523 2.25-2.4766 4.4805-2.4766 6.6953 0 2.2109 0.82812 4.4453 2.4766 6.6953zm22.117 2.1172c0.32422 0.44531 0.23047 1.0703-0.21484 1.3945-0.44531 0.32422-1.0703 0.23047-1.3945-0.21484-1.9141-2.6055-2.8711-5.2305-2.8711-7.875s0.95703-5.2695 2.8711-7.875c1.6523-2.25 2.4766-4.4844 2.4766-6.6953 0-2.2148-0.82813-4.4453-2.4766-6.6953-0.32422-0.44531-0.23047-1.0703 0.21484-1.3945 0.44531-0.32422 1.0703-0.23047 1.3945 0.21484 1.9141 2.6055 2.8711 5.2305 2.8711 7.875 0 2.6406-0.95703 5.2695-2.8711 7.875-1.6523 2.25-2.4766 4.4805-2.4766 6.6953 0 2.2109 0.82812 4.4453 2.4766 6.6953zm24.594-4.5703c0.32422 0.44531 0.23047 1.0703-0.21484 1.3945-0.44531 0.32422-1.0703 0.23047-1.3945-0.21484-1.9102-2.6055-2.8672-5.2305-2.8672-7.875 0-2.6445 0.95703-5.2695 2.8672-7.875 1.6523-2.2461 2.4766-4.4805 2.4766-6.6953s-0.82422-4.4453-2.4766-6.6953c-0.32422-0.44531-0.23047-1.0703 0.21484-1.3945 0.44531-0.32422 1.0703-0.23047 1.3945 0.21484 1.9141 2.6055 2.8672 5.2305 2.8672 7.875 0 2.6406-0.95703 5.2695-2.8672 7.875-1.6484 2.25-2.4766 4.4844-2.4766 6.6953 0 2.2109 0.82812 4.4453 2.4766 6.6953zm-20.312-45.586c0.39844 0.375 0.41406 1.0078 0.039062 1.4062-0.375 0.39844-1.0078 0.41406-1.4062 0.039063l-0.66797-0.66016c-1.7656-1.8711-2.6523-3.7852-2.6484-5.7305-0.003906-1.9414 0.88281-3.8555 2.6523-5.7305l1.2461-1.2422c1.4023-1.4883 2.1055-2.9414 2.1055-4.3633 0-1.418-0.70312-2.875-2.1055-4.3633l-0.58203-0.58203c-0.39844-0.375-0.41406-1.0078-0.039062-1.4062s1.0078-0.41406 1.4062-0.039062l0.66797 0.66016c1.7695 1.875 2.6523 3.7891 2.6523 5.7305 0 1.9453-0.88672 3.8594-2.6562 5.7305l-1.2461 1.2422c-1.4062 1.4883-2.1055 2.9453-2.1055 4.3633-0.003906 1.418 0.69922 2.875 2.1055 4.3633z"/>
<text x="0.0" y="117.5" font-size="5.0" font-weight="bold" font-family="Arbeit Regular, Helvetica, Arial-Unicode, Arial, Sans-serif" fill="#000000">Created by Rofidatul Hasanah</text><text x="0.0" y="122.5" font-size="5.0" font-weight="bold" font-family="Arbeit Regular, Helvetica, Arial-Unicode, Arial, Sans-serif" fill="#000000">from Noun Project</text></svg>