<svg xmlns="http://www.w3.org/2000/svg" xmlns:xlink="http://www.w3.org/1999/xlink" version="1.1" x="0px" y="0px" viewBox="0 0 100 125" enable-background="new 0 0 100 100" xml:space="preserve"><path d="M65.814,39.986c-0.238-0.771-0.458-1.56-0.635-2.377c-1.215-5.597-0.442-10.623,0.085-12.993  c0.144-0.646,0.926-0.729,1.337-0.141c1.509,2.156,4.38,6.797,5.595,12.394c0.712,3.283,0.739,6.364,0.535,8.834  c0.693-0.108,1.41-0.14,2.149-0.066c5.448,0.541,10.323,5.59,10.362,7.938c0.038,2.375-1.544,5.145-3.884,7.12  c0.017,0.012,0.035,0.02,0.051,0.031c2.052,1.474,3.69,4.932,4.293,7.3c0.195,0.765,0.149,1.827-0.612,2.035  c-0.567,0.155-1.097-0.31-1.506-0.731c-2.187-2.249-4.547-4.327-7.053-6.212c-0.465,0.094-0.935,0.152-1.408,0.167  c1.855,3.293,3.956,6.949,4.695,10.616c0.113,0.562,0.177,1.211-0.198,1.645c-0.363,0.419-1.022,0.461-1.535,0.25  c-0.366-0.153-0.674-0.407-0.962-0.688c-2.288-2.236-4.644-4.452-7.338-6.199c-2.723-1.765-5.984-2.789-9.017-3.895  c-5.44-1.984-11.241-3.352-17.056-3.51c-0.1,1.879-0.707,3.623-2.231,4.984c-2.431,2.173-6.185,2.529-9.182,1.245  c-2.997-1.284-5.235-4.015-6.365-7.073c-1.977,0.444-12.435,2.259-11.697-1.833c0.175-0.974,1.014-1.725,1.944-2.066  c0.929-0.339,1.945-0.338,2.935-0.304c4.406,0.146,8.794,0.834,13.033,2.041c-0.591-1.381-1.09-2.928-1.382-4.516  c-1.451-0.383-2.865-0.9-4.313-1.275c-2.128-0.552-4.673-0.254-6.431-1.872c-0.542-0.5-0.888-1.279-0.682-1.987  c0.194-0.668,0.839-1.133,1.517-1.286c3.285-0.741,6.713,1.248,9.637,3.57c0.003-1.202,0.166-2.385,0.547-3.499  c-1.304-0.676-2.232-2.365-2.232-4.354c0-2.585,1.56-4.68,3.485-4.68c1.743,0,3.174,1.723,3.432,3.967  c0.017,0.155,0.025,0.315,0.035,0.472c-0.01-0.158-0.018-0.317-0.035-0.472c1.642-0.79,3.485-1.244,5.249-1.518  c3.523-0.546,7.159-0.236,10.568,0.788c5.524,1.659,10.389,4.983,14.445,9.046l1.238-1.971c-2.891-1.231-6.485-3.12-9.725-5.877  c-4.927-4.192-7.677-9.233-8.83-11.722c-0.313-0.678,0.332-1.288,1.103-1.043c2.833,0.902,8.592,3.099,13.519,7.29  C64.217,38.345,65.04,39.163,65.814,39.986"/><text x="0" y="115" fill="#000000" font-size="5px" font-weight="bold" font-family="'Helvetica Neue', Helvetica, Arial-Unicode, Arial, Sans-serif">Created by TRAVIS BIRD</text><text x="0" y="120" fill="#000000" font-size="5px" font-weight="bold" font-family="'Helvetica Neue', Helvetica, Arial-Unicode, Arial, Sans-serif">from the Noun Project</text></svg>