<svg xmlns="http://www.w3.org/2000/svg" xmlns:cc="http://creativecommons.org/ns#" xmlns:dc="http://purl.org/dc/elements/1.1/" xmlns:rdf="http://www.w3.org/1999/02/22-rdf-syntax-ns#" enable-background="new" version="1.1" viewBox="-3.2 -6.4 70.4 86.4" x="0px" y="0px"><path d="m3.0009 2v0.00586c-0.00109 6.04e-5 -0.066407-0.00391-0.066407-0.00391-1.2893 0.083657-1.2256 2.0002 0.066407 1.9981 0 0 1.2567 0.083817 2.3145 0.1543l12.555 40.561-2.5997 2.5997c-0.62333-0.36593-1.3275-0.54884-2.0313-0.54884-1.0258 0-2.0513 0.38916-2.8282 1.166l-3.5352 3.5352c-1.163 1.163-1.163 3.0793 0 4.2423l1.4141 1.4141c1.163 1.163 3.0793 1.163 4.2423 0l3.5352-3.5352c1.3099-1.3099 1.5159-3.3276 0.6172-4.8595l2.5997-2.5997 40.561 12.555c0.07048 1.0578 0.1543 2.3145 0.1543 2.3145-0.0021 1.292 1.9144 1.3557 1.9981 0.06641 0 0-4e-3 -0.06531-0.0039-0.06641h0.0059s0.02572-23.704-16.602-40.983l5.4864-5.4864c0.16637 0.32942 0.37438 0.6322 0.63478 0.89259 0.70052 0.70052 1.6581 1.1549 2.711 1.1934 2.1075 0.07696 3.8485-1.6621 3.7716-3.7696l-0.15825-4.2969c-0.04742-1.2985-1.0941-2.3452-2.3926-2.3926l-4.2969-0.15821c-2.1075-0.076961-3.8466 1.6641-3.7696 3.7715 0.05292 1.449 0.90049 2.6698 2.1055 3.3262l-5.506 5.506c-17.28-16.628-40.983-16.602-40.983-16.602zm4.5274 2.543c1.459 0.32359 3.2334 0.82142 5.3634 1.6407 6.2186 2.3918 15.09 7.3977 25.686 17.825l-19.11 19.11zm32.463 20.879c10.427 10.596 15.433 19.467 17.825 25.686 0.81923 2.13 1.3171 3.9043 1.6407 5.3634l-38.575-11.94zm-26.752 23.332c0.50976 0 1.0194 0.19709 1.4141 0.59181 0.78944 0.78944 0.78944 2.0387 0 2.8282l-3.5352 3.5352c-0.40397 0.40397-1.0101 0.40397-1.4141 0l-1.4141-1.4141c-0.40397-0.40397-0.40397-1.0101 0-1.4141l3.5352-3.5352c0.39472-0.39472 0.90433-0.5918 1.4141-0.59181z" color="#000000" style=""/><text x="0.0" y="75.2" font-size="3.2" font-weight="bold" font-family="Arbeit Regular, Helvetica, Arial-Unicode, Arial, Sans-serif" fill="#000000">Created by Gulalicon</text><text x="0.0" y="78.4" font-size="3.2" font-weight="bold" font-family="Arbeit Regular, Helvetica, Arial-Unicode, Arial, Sans-serif" fill="#000000">from Noun Project</text></svg>